# xmcd CD database file generated by OrangeCD 5.2
#
# Track frame offsets:
#	150
#	13210
#	25227
#	58787
#	70488
#	78142
#	88563
#	103790
#	124940
#	141192
#	149833
#	162835
#	212709
#	240010
#	250383
#	262533
#	283538
#	323927
#
# Disc length: 4472 seconds
#
# Revision: 0
# Processed by: cddbd v1.5.1PL0 Copyright (c) Steve Scherf et al.
# Submitted via: OrangeCD 5.2
#
DISCID=01117612
DTITLE=Johnny Cash - The ABC Show Series Volume 5
DYEAR=2000
DGENRE=Country
TTITLE0=Opening/Orange Blossom Special
TTITLE1=Johnny Cash and Ricky Nelson - Louisiana Man
TTITLE2=Ride This Train: Black Wind/California Cottonfields
TTITLE3=Poem For Chet Atkins
TTITLE4=Hey Porter
TTITLE5=No One Will Ever Know
TTITLE6=Johnny Cash and Kriss Kristofferson - The Pilgrim
TTITLE7=Here Was A Man
TTITLE8=Opening/One More Ride/Wreck Of The Old 97/Wreck Of The Old No. 9
TTITLE9=Johnny Cash and Merle Haggard - In The Jailhouse Now
TTITLE10=Johnny Cash and Brenda Lee - Big Boss Man/Bad News
TTITLE11=Ride This Train: As Long As The Grass Shall Grow/The Ballad Of Ira Hay
TTITLE11=es
TTITLE12=Johnny Cash and Charlie Pride - Long Long Texas Road/Galveston/Texarkana
TTITLE12=Babe/Abilene/Back To Houston
TTITLE13=Johnny Cash and June Carter Cash - Long Legged Guitar Pickin' Man
TTITLE14=Life's A Railway To Heaven
TTITLE15=I'm Gonna Try To Be That Way
TTITLE16=Ride This Train: The Coming And Going Of The Trains
TTITLE17=Uncloudy Day/Close Up
EXTD=
EXTT0=
EXTT1=
EXTT2=
EXTT3=
EXTT4=
EXTT5=
EXTT6=
EXTT7=
EXTT8=
EXTT9=
EXTT10=
EXTT11=
EXTT12=
EXTT13=
EXTT14=
EXTT15=
EXTT16=
EXTT17=
PLAYORDER=
